<svg width="341" height="87" viewBox="0 0 341 87" fill="none" xmlns="http://www.w3.org/2000/svg">
<path d="M4.61227 75.6V17.412H15.5323V25.524L14.5183 23.184C15.9223 21.052 17.8203 19.414 20.2123 18.27C22.6563 17.074 25.4383 16.476 28.5583 16.476C32.6143 16.476 36.2803 17.464 39.5563 19.44C42.8323 21.416 45.4323 24.094 47.3563 27.474C49.2803 30.802 50.2423 34.546 50.2423 38.706C50.2423 42.814 49.2803 46.558 47.3563 49.938C45.4843 53.318 42.9103 55.996 39.6343 57.972C36.3583 59.948 32.6403 60.936 28.4803 60.936C25.5683 60.936 22.8643 60.416 20.3683 59.376C17.9243 58.284 15.9483 56.698 14.4403 54.618L16.3123 52.2V75.6H4.61227ZM27.0763 50.406C29.2603 50.406 31.1843 49.912 32.8483 48.924C34.5123 47.936 35.8123 46.558 36.7483 44.79C37.6843 43.022 38.1523 40.994 38.1523 38.706C38.1523 36.418 37.6843 34.416 36.7483 32.7C35.8123 30.932 34.5123 29.554 32.8483 28.566C31.1843 27.526 29.2603 27.006 27.0763 27.006C24.9963 27.006 23.1243 27.5 21.4603 28.488C19.8483 29.476 18.5743 30.854 17.6383 32.622C16.7543 34.39 16.3123 36.418 16.3123 38.706C16.3123 40.994 16.7543 43.022 17.6383 44.79C18.5743 46.558 19.8483 47.936 21.4603 48.924C23.1243 49.912 24.9963 50.406 27.0763 50.406ZM57.0947 60V17.412H82.0547V27.552H68.7947V60H57.0947ZM100.365 60.936C97.2966 60.936 94.6446 60.442 92.4086 59.454C90.1726 58.466 88.4566 57.062 87.2606 55.242C86.0646 53.37 85.4666 51.16 85.4666 48.612C85.4666 46.22 86.0126 44.114 87.1046 42.294C88.1966 40.422 89.8606 38.862 92.0966 37.614C94.3846 36.366 97.2186 35.482 100.599 34.962L113.625 32.856V41.436L102.705 43.386C101.041 43.698 99.7666 44.244 98.8826 45.024C97.9986 45.752 97.5566 46.818 97.5566 48.222C97.5566 49.522 98.0506 50.536 99.0386 51.264C100.027 51.992 101.249 52.356 102.705 52.356C104.629 52.356 106.319 51.94 107.775 51.108C109.231 50.276 110.349 49.158 111.129 47.754C111.961 46.298 112.377 44.712 112.377 42.996V27.552H90.1466V17.412H124.077V60H113.157V53.136L115.809 52.668C114.561 54.54 113.183 56.1 111.675 57.348C110.167 58.544 108.477 59.428 106.605 60C104.733 60.624 102.653 60.936 100.365 60.936ZM132.657 60V17.412H197.397V60H185.697V27.552H170.877V60H159.177V27.552H144.357V60H132.657ZM204.239 60V17.412H215.939V49.86H231.539V17.412H243.239V60H204.239ZM279.168 60L267.078 42.528L267.78 33.402L277.92 17.412H290.712L277.608 38.472L292.35 60H279.168ZM251.79 60V0.953998H263.49V60H251.79ZM259.2 42.996V32.856H273.708V42.996H259.2ZM310.675 60.936C307.607 60.936 304.955 60.442 302.719 59.454C300.483 58.466 298.767 57.062 297.571 55.242C296.375 53.37 295.777 51.16 295.777 48.612C295.777 46.22 296.323 44.114 297.415 42.294C298.507 40.422 300.171 38.862 302.407 37.614C304.695 36.366 307.529 35.482 310.909 34.962L323.935 32.856V41.436L313.015 43.386C311.351 43.698 310.077 44.244 309.193 45.024C308.309 45.752 307.867 46.818 307.867 48.222C307.867 49.522 308.361 50.536 309.349 51.264C310.337 51.992 311.559 52.356 313.015 52.356C314.939 52.356 316.629 51.94 318.085 51.108C319.541 50.276 320.659 49.158 321.439 47.754C322.271 46.298 322.687 44.712 322.687 42.996V27.552H300.457V17.412H334.387V60H323.467V53.136L326.119 52.668C324.871 54.54 323.493 56.1 321.985 57.348C320.477 58.544 318.787 59.428 316.915 60C315.043 60.624 312.963 60.936 310.675 60.936Z" fill="#FB0102"/>
<path d="M25.4985 81.324C24.1125 81.324 22.8975 80.973 21.8535 80.271C20.8095 79.569 20.0535 78.615 19.5855 77.409L21.2865 76.599C21.7005 77.481 22.2765 78.183 23.0145 78.705C23.7705 79.227 24.5985 79.488 25.4985 79.488C26.3625 79.488 27.0915 79.281 27.6855 78.867C28.2795 78.435 28.5765 77.877 28.5765 77.193C28.5765 76.689 28.4325 76.293 28.1445 76.005C27.8565 75.699 27.5235 75.465 27.1455 75.303C26.7675 75.141 26.4345 75.024 26.1465 74.952L24.0675 74.358C22.7355 73.98 21.7725 73.449 21.1785 72.765C20.5845 72.081 20.2875 71.289 20.2875 70.389C20.2875 69.543 20.5035 68.805 20.9355 68.175C21.3675 67.545 21.9525 67.059 22.6905 66.717C23.4285 66.375 24.2475 66.204 25.1475 66.204C26.3715 66.204 27.4785 66.528 28.4685 67.176C29.4765 67.806 30.1875 68.688 30.6015 69.822L28.8735 70.632C28.5135 69.822 27.9915 69.192 27.3075 68.742C26.6415 68.274 25.8945 68.04 25.0665 68.04C24.2565 68.04 23.6085 68.247 23.1225 68.661C22.6365 69.075 22.3935 69.597 22.3935 70.227C22.3935 70.713 22.5195 71.1 22.7715 71.388C23.0235 71.676 23.3115 71.892 23.6355 72.036C23.9775 72.18 24.2745 72.288 24.5265 72.36L26.9295 73.062C28.0995 73.404 29.0085 73.935 29.6565 74.655C30.3225 75.375 30.6555 76.221 30.6555 77.193C30.6555 77.985 30.4305 78.696 29.9805 79.326C29.5485 79.956 28.9455 80.451 28.1715 80.811C27.3975 81.153 26.5065 81.324 25.4985 81.324ZM34.2138 81V66.528H54.8688V81H52.8438V68.553H45.5538V81H43.5288V68.553H36.2388V81H34.2138ZM59.7343 86.4V68.418H57.7093V66.528H61.7593V69.768L61.4353 69.201C62.0113 68.283 62.7763 67.554 63.7303 67.014C64.7023 66.474 65.8093 66.204 67.0513 66.204C68.4193 66.204 69.6343 66.537 70.6963 67.203C71.7763 67.851 72.6223 68.742 73.2343 69.876C73.8643 71.01 74.1793 72.306 74.1793 73.764C74.1793 75.204 73.8643 76.5 73.2343 77.652C72.6223 78.786 71.7763 79.686 70.6963 80.352C69.6343 81 68.4193 81.324 67.0513 81.324C65.8093 81.324 64.6843 81.045 63.6763 80.487C62.6863 79.911 61.9393 79.101 61.4353 78.057L61.7593 77.76V86.4H59.7343ZM66.9433 79.299C67.9153 79.299 68.7793 79.056 69.5353 78.57C70.3093 78.084 70.9123 77.427 71.3443 76.599C71.7943 75.753 72.0193 74.808 72.0193 73.764C72.0193 72.702 71.7943 71.757 71.3443 70.929C70.9123 70.101 70.3093 69.444 69.5353 68.958C68.7793 68.472 67.9153 68.229 66.9433 68.229C65.9713 68.229 65.0893 68.472 64.2973 68.958C63.5233 69.444 62.9023 70.11 62.4343 70.956C61.9843 71.784 61.7593 72.72 61.7593 73.764C61.7593 74.808 61.9843 75.753 62.4343 76.599C62.9023 77.427 63.5233 78.084 64.2973 78.57C65.0893 79.056 65.9713 79.299 66.9433 79.299ZM82.3339 81V66.528H93.9439V81H91.9189V68.553H84.3589V81H82.3339ZM105.229 81.324C103.699 81.324 102.349 81 101.179 80.352C100.027 79.686 99.1275 78.777 98.4795 77.625C97.8315 76.473 97.5075 75.168 97.5075 73.71C97.5075 72.252 97.8135 70.965 98.4255 69.849C99.0375 68.715 99.8655 67.824 100.909 67.176C101.971 66.528 103.159 66.204 104.473 66.204C105.517 66.204 106.444 66.402 107.254 66.798C108.082 67.176 108.784 67.698 109.36 68.364C109.936 69.012 110.377 69.75 110.683 70.578C110.989 71.388 111.142 72.225 111.142 73.089C111.142 73.269 111.133 73.476 111.115 73.71C111.097 73.926 111.07 74.151 111.034 74.385H98.8035V72.495H109.873L108.901 73.305C109.063 72.315 108.946 71.433 108.55 70.659C108.172 69.867 107.623 69.246 106.903 68.796C106.183 68.328 105.373 68.094 104.473 68.094C103.573 68.094 102.736 68.328 101.962 68.796C101.206 69.264 100.612 69.921 100.18 70.767C99.7485 71.595 99.5775 72.585 99.6675 73.737C99.5775 74.889 99.7665 75.897 100.234 76.761C100.72 77.607 101.395 78.264 102.259 78.732C103.141 79.2 104.131 79.434 105.229 79.434H110.332V81.324H105.229ZM116.36 86.94V84.915H126.404V77.22L126.728 77.517C126.224 78.561 125.477 79.371 124.487 79.947C123.497 80.505 122.417 80.784 121.247 80.784C119.897 80.784 118.682 80.46 117.602 79.812C116.522 79.164 115.667 78.291 115.037 77.193C114.425 76.077 114.119 74.844 114.119 73.494C114.119 72.126 114.425 70.893 115.037 69.795C115.667 68.697 116.513 67.824 117.575 67.176C118.655 66.528 119.879 66.204 121.247 66.204C122.417 66.204 123.479 66.474 124.433 67.014C125.405 67.554 126.17 68.283 126.728 69.201L126.404 69.768V66.528H128.429V86.94H116.36ZM121.355 78.759C122.291 78.759 123.137 78.525 123.893 78.057C124.649 77.571 125.252 76.932 125.702 76.14C126.17 75.33 126.404 74.448 126.404 73.494C126.404 72.54 126.17 71.667 125.702 70.875C125.252 70.065 124.649 69.426 123.893 68.958C123.137 68.472 122.291 68.229 121.355 68.229C120.401 68.229 119.537 68.472 118.763 68.958C117.989 69.426 117.377 70.056 116.927 70.848C116.495 71.64 116.279 72.522 116.279 73.494C116.279 74.448 116.495 75.33 116.927 76.14C117.377 76.932 117.98 77.571 118.736 78.057C119.51 78.525 120.383 78.759 121.355 78.759ZM139.718 81.324C138.188 81.324 136.838 81 135.668 80.352C134.516 79.686 133.616 78.777 132.968 77.625C132.32 76.473 131.996 75.168 131.996 73.71C131.996 72.252 132.302 70.965 132.914 69.849C133.526 68.715 134.354 67.824 135.398 67.176C136.46 66.528 137.648 66.204 138.962 66.204C140.006 66.204 140.933 66.402 141.743 66.798C142.571 67.176 143.273 67.698 143.849 68.364C144.425 69.012 144.866 69.75 145.172 70.578C145.478 71.388 145.631 72.225 145.631 73.089C145.631 73.269 145.622 73.476 145.604 73.71C145.586 73.926 145.559 74.151 145.523 74.385H133.292V72.495H144.362L143.39 73.305C143.552 72.315 143.435 71.433 143.039 70.659C142.661 69.867 142.112 69.246 141.392 68.796C140.672 68.328 139.862 68.094 138.962 68.094C138.062 68.094 137.225 68.328 136.451 68.796C135.695 69.264 135.101 69.921 134.669 70.767C134.237 71.595 134.066 72.585 134.156 73.737C134.066 74.889 134.255 75.897 134.723 76.761C135.209 77.607 135.884 78.264 136.748 78.732C137.63 79.2 138.62 79.434 139.718 79.434H144.821V81.324H139.718ZM149.201 81V66.528H156.221V68.553H151.226V81H149.201ZM159.587 81V68.553H157.562V66.528H161.612V81H159.587ZM159.587 63.855V60.885H161.612V63.855H159.587ZM176.882 81.324C175.532 81.324 174.317 81 173.237 80.352C172.157 79.686 171.302 78.786 170.672 77.652C170.06 76.5 169.754 75.204 169.754 73.764C169.754 72.306 170.06 71.01 170.672 69.876C171.302 68.742 172.148 67.851 173.21 67.203C174.29 66.537 175.514 66.204 176.882 66.204C178.124 66.204 179.231 66.474 180.203 67.014C181.175 67.554 181.94 68.283 182.498 69.201L182.174 69.768V60.561H184.199V81H182.174V77.76L182.498 78.057C181.994 79.101 181.238 79.911 180.23 80.487C179.24 81.045 178.124 81.324 176.882 81.324ZM176.99 79.299C177.962 79.299 178.835 79.056 179.609 78.57C180.401 78.084 181.022 77.427 181.472 76.599C181.94 75.753 182.174 74.808 182.174 73.764C182.174 72.72 181.94 71.784 181.472 70.956C181.022 70.11 180.401 69.444 179.609 68.958C178.835 68.472 177.962 68.229 176.99 68.229C176.036 68.229 175.172 68.472 174.398 68.958C173.624 69.444 173.012 70.101 172.562 70.929C172.13 71.757 171.914 72.702 171.914 73.764C171.914 74.808 172.13 75.753 172.562 76.599C173.012 77.427 173.615 78.084 174.371 78.57C175.145 79.056 176.018 79.299 176.99 79.299ZM188.059 81V66.528H190.084V78.975H197.644V66.528H199.669V81H188.059ZM208.019 81.324C207.101 81.324 206.282 81.153 205.562 80.811C204.842 80.451 204.275 79.965 203.861 79.353C203.447 78.741 203.24 78.039 203.24 77.247C203.24 76.491 203.402 75.807 203.726 75.195C204.05 74.565 204.554 74.034 205.238 73.602C205.922 73.17 206.795 72.864 207.857 72.684L213.527 71.739V73.575L208.343 74.439C207.299 74.619 206.543 74.952 206.075 75.438C205.625 75.924 205.4 76.5 205.4 77.166C205.4 77.814 205.652 78.363 206.156 78.813C206.678 79.263 207.344 79.488 208.154 79.488C209.144 79.488 210.008 79.281 210.746 78.867C211.484 78.435 212.06 77.859 212.474 77.139C212.888 76.419 213.095 75.618 213.095 74.736V68.553H204.59V66.528H215.12V81H213.095V78.111L213.392 78.408C213.14 78.948 212.744 79.443 212.204 79.893C211.682 80.325 211.061 80.676 210.341 80.946C209.639 81.198 208.865 81.324 208.019 81.324ZM227.059 81L222.091 66.528H224.386L228.49 79.191H227.68L231.541 66.528H233.566L237.427 79.191H236.617L240.748 66.528H243.016L238.048 81H236.023L232.27 68.607H232.837L229.084 81H227.059ZM251.902 81.324C250.534 81.324 249.292 81 248.176 80.352C247.06 79.686 246.169 78.786 245.503 77.652C244.855 76.5 244.531 75.195 244.531 73.737C244.531 72.297 244.855 71.01 245.503 69.876C246.151 68.742 247.024 67.851 248.122 67.203C249.238 66.537 250.498 66.204 251.902 66.204C253.306 66.204 254.557 66.528 255.655 67.176C256.771 67.824 257.644 68.715 258.274 69.849C258.922 70.983 259.246 72.279 259.246 73.737C259.246 75.213 258.913 76.527 258.247 77.679C257.581 78.813 256.69 79.704 255.574 80.352C254.476 81 253.252 81.324 251.902 81.324ZM251.902 79.299C252.874 79.299 253.747 79.056 254.521 78.57C255.313 78.084 255.934 77.418 256.384 76.572C256.852 75.726 257.086 74.781 257.086 73.737C257.086 72.693 256.852 71.757 256.384 70.929C255.934 70.101 255.313 69.444 254.521 68.958C253.747 68.472 252.874 68.229 251.902 68.229C250.93 68.229 250.048 68.472 249.256 68.958C248.482 69.444 247.861 70.101 247.393 70.929C246.925 71.757 246.691 72.693 246.691 73.737C246.691 74.781 246.925 75.726 247.393 76.572C247.861 77.418 248.482 78.084 249.256 78.57C250.048 79.056 250.93 79.299 251.902 79.299ZM262.817 81V66.528H274.427V81H272.402V68.553H264.842V81H262.817ZM285.362 81.324C283.994 81.324 282.752 81 281.636 80.352C280.52 79.686 279.629 78.786 278.963 77.652C278.315 76.5 277.991 75.195 277.991 73.737C277.991 72.297 278.315 71.01 278.963 69.876C279.611 68.742 280.484 67.851 281.582 67.203C282.698 66.537 283.958 66.204 285.362 66.204C286.766 66.204 288.017 66.528 289.115 67.176C290.231 67.824 291.104 68.715 291.734 69.849C292.382 70.983 292.706 72.279 292.706 73.737C292.706 75.213 292.373 76.527 291.707 77.679C291.041 78.813 290.15 79.704 289.034 80.352C287.936 81 286.712 81.324 285.362 81.324ZM285.362 79.299C286.334 79.299 287.207 79.056 287.981 78.57C288.773 78.084 289.394 77.418 289.844 76.572C290.312 75.726 290.546 74.781 290.546 73.737C290.546 72.693 290.312 71.757 289.844 70.929C289.394 70.101 288.773 69.444 287.981 68.958C287.207 68.472 286.334 68.229 285.362 68.229C284.39 68.229 283.508 68.472 282.716 68.958C281.942 69.444 281.321 70.101 280.853 70.929C280.385 71.757 280.151 72.693 280.151 73.737C280.151 74.781 280.385 75.726 280.853 76.572C281.321 77.418 281.942 78.084 282.716 78.57C283.508 79.056 284.39 79.299 285.362 79.299ZM300.462 81.324C299.544 81.324 298.725 81.153 298.005 80.811C297.285 80.451 296.718 79.965 296.304 79.353C295.89 78.741 295.683 78.039 295.683 77.247C295.683 76.491 295.845 75.807 296.169 75.195C296.493 74.565 296.997 74.034 297.681 73.602C298.365 73.17 299.238 72.864 300.3 72.684L305.97 71.739V73.575L300.786 74.439C299.742 74.619 298.986 74.952 298.518 75.438C298.068 75.924 297.843 76.5 297.843 77.166C297.843 77.814 298.095 78.363 298.599 78.813C299.121 79.263 299.787 79.488 300.597 79.488C301.587 79.488 302.451 79.281 303.189 78.867C303.927 78.435 304.503 77.859 304.917 77.139C305.331 76.419 305.538 75.618 305.538 74.736V68.553H297.033V66.528H307.563V81H305.538V78.111L305.835 78.408C305.583 78.948 305.187 79.443 304.647 79.893C304.125 80.325 303.504 80.676 302.784 80.946C302.082 81.198 301.308 81.324 300.462 81.324ZM310.486 86.4V84.51H314.266L316.129 80.082L316.075 81.864L309.946 66.501H312.133L317.155 79.191H316.588L321.583 66.501H323.824L315.778 86.4H310.486ZM325.907 81V66.528H327.932V78.975H335.492V66.528H337.517V81H325.907Z" fill="#0695C9"/>
</svg>
